# xmcd
#
# Track frame offsets: 
#        150
#        10402
#        21160
#        33175
#        45955
#        58703
#        70903
#        81790
#        92687
#        103651
#        112005
#
# Disc length: 1703 seconds
#
# Revision: 0
# Processed by: cddbd v1.5.2PL0 Copyright (c) Steve Scherf et al.
# Submitted via: ExactAudioCopy v0.99pb4
#
DISCID=8406a50b
DTITLE=The Buckaroos - Rockin With
DYEAR=2007
DGENRE=Blues
TTITLE0=I Should Been Lovin' this
TTITLE1=Shame Shame Shame
TTITLE2=Mary
TTITLE3=Barefootin'
TTITLE4=Let's Have A Ball
TTITLE5=Bedroom Blues
TTITLE6=Seven Nights To Rock
TTITLE7=Liquered Up and Laquered Down
TTITLE8=Good Good Lovin'
TTITLE9=Parti a mamou
TTITLE10=It Always Rains In Malmoe
EXTD=
EXTT0=
EXTT1=
EXTT2=
EXTT3=
EXTT4=
EXTT5=
EXTT6=
EXTT7=
EXTT8=
EXTT9=
EXTT10=
PLAYORDER=
